<svg width="25" height="25" viewBox="0 0 25 25" fill="none" xmlns="http://www.w3.org/2000/svg">
<g clip-path="url(#clip0_109_1932)">
<path fill-rule="evenodd" clip-rule="evenodd" d="M8.78033 7.21967C8.48744 6.92678 8.01256 6.92678 7.71967 7.21967C7.42678 7.51256 7.42678 7.98744 7.71967 8.28033L11.4393 12L7.71967 15.7197C7.42678 16.0126 7.42678 16.4874 7.71967 16.7803C8.01256 17.0732 8.48744 17.0732 8.78033 16.7803L12.5 13.0607L16.2197 16.7803C16.5126 17.0732 16.9874 17.0732 17.2803 16.7803C17.5732 16.4874 17.5732 16.0126 17.2803 15.7197L13.5607 12L17.2803 8.28033C17.5732 7.98744 17.5732 7.51256 17.2803 7.21967C16.9874 6.92678 16.5126 6.92678 16.2197 7.21967L12.5 10.9393L8.78033 7.21967Z" fill="#666666"/>
</g>
<defs>
<clipPath id="clip0_109_1932">
<rect width="16" height="16" fill="white" transform="translate(4.5 4)"/>
</clipPath>
</defs>
</svg>
